<svg width="26" height="26" viewBox="0 0 26 26" fill="none" xmlns="http://www.w3.org/2000/svg">
<path opacity="0.2" d="M17.9831 8.59369H3.90938C3.47756 8.59369 3.1275 8.94375 3.1275 9.37556V20.3218C3.1275 20.7536 3.47756 21.1037 3.90938 21.1037H17.9831C18.4149 21.1037 18.765 20.7536 18.765 20.3218V9.37556C18.765 8.94375 18.4149 8.59369 17.9831 8.59369Z" fill="#155DFC"/>
<path d="M17.9831 8.59369H3.90938C3.47756 8.59369 3.1275 8.94375 3.1275 9.37556V20.3218C3.1275 20.7536 3.47756 21.1037 3.90938 21.1037H17.9831C18.4149 21.1037 18.765 20.7536 18.765 20.3218V9.37556C18.765 8.94375 18.4149 8.59369 17.9831 8.59369Z" stroke="#155DFC" stroke-width="1.5" stroke-linecap="round" stroke-linejoin="round"/>
<path d="M6.255 5.46619H21.1106C21.318 5.46619 21.5169 5.54856 21.6635 5.69519C21.8101 5.84182 21.8925 6.0407 21.8925 6.24806V17.9762" stroke="#155DFC" stroke-width="1.5" stroke-linecap="round" stroke-linejoin="round"/>
</svg>
