<svg width="26" height="26" viewBox="0 0 26 26" fill="none" xmlns="http://www.w3.org/2000/svg">
<path d="M12.51 0.974976C5.60063 0.974976 0 2.97658 0 5.44283V21.5271C0 23.9934 5.60063 25.995 12.51 25.995C19.4194 25.995 25.02 23.9934 25.02 21.5271V5.44283C25.02 2.97658 19.4194 0.974976 12.51 0.974976ZM23.0954 21.5271C22.9703 22.3045 19.1018 24.2078 12.51 24.2078C5.91819 24.2078 2.04972 22.3045 1.92462 21.5271V18.5426C2.10745 18.6498 2.29992 18.7481 2.51162 18.8464C3.2526 19.2038 4.15717 19.5166 5.16759 19.7847C7.22693 20.3208 9.76742 20.6335 12.51 20.6335C15.2526 20.6335 17.7834 20.3208 19.8428 19.7847C20.8628 19.5255 21.7578 19.2047 22.5084 18.8464C22.721 18.7481 22.9125 18.6498 23.0954 18.5426V21.5271ZM23.0954 16.1657C23.028 16.5767 21.8925 17.3184 19.8524 17.9082C18.0625 18.4354 15.5798 18.8464 12.51 18.8464C9.44986 18.8464 6.96711 18.4264 5.17722 17.9082C3.1275 17.3095 1.99198 16.5767 1.92462 16.1657V13.1812C2.10745 13.2875 2.29992 13.3867 2.51162 13.485C3.2526 13.8424 4.15717 14.1552 5.16759 14.4232C7.22693 14.9594 9.76742 15.2721 12.51 15.2721C15.2526 15.2721 17.7834 14.9594 19.8428 14.4232C20.8628 14.1641 21.7578 13.8433 22.5084 13.485C22.721 13.3876 22.9125 13.2875 23.0954 13.1812V16.1657ZM23.0954 10.8043C23.028 11.2153 21.8925 11.957 19.8524 12.5467C18.0625 13.0739 15.5798 13.485 12.51 13.485C9.44986 13.485 6.96711 13.0641 5.17722 12.5467C3.1275 11.948 1.99198 11.2153 1.92462 10.8043V7.81973C2.10745 7.92696 2.29992 8.02525 2.51162 8.12355C3.2526 8.48098 4.15717 8.79373 5.16759 9.0618C7.22693 9.59794 9.76742 9.91069 12.51 9.91069C15.2526 9.91069 17.7834 9.59794 19.8428 9.0618C20.8628 8.80266 21.7578 8.48098 22.5084 8.12355C22.721 8.02525 22.9125 7.92696 23.0954 7.81973V10.8043ZM19.8524 7.1853C18.0625 7.7125 15.5798 8.12355 12.51 8.12355C9.44986 8.12355 6.96711 7.70357 5.17722 7.1853C3.1275 6.5866 1.99198 5.85388 1.92462 5.44283C2.04972 4.66543 5.91819 2.76212 12.51 2.76212C19.1018 2.76212 22.9703 4.67436 23.0954 5.44283C23.028 5.85388 21.8925 6.59554 19.8524 7.1853Z" fill="#155DFC"/>
</svg>
