<svg width="53" height="53" viewBox="0 0 53 53" fill="none" xmlns="http://www.w3.org/2000/svg">
<g clip-path="url(#clip0_2015_236)">
<path d="M15.0027 19.7149C14.617 19.6772 14.2337 19.6098 13.8567 19.5124L8.60635 14.3746C8.50498 14.0039 8.43385 13.6267 8.39297 13.247L15.0027 19.7149Z" fill="#155DFC"/>
<path d="M16.8346 19.6701C16.5493 19.7122 16.2619 19.7377 15.9741 19.7468L8.35391 12.29C8.36119 12.0064 8.38521 11.7231 8.42596 11.4417L16.8346 19.6701Z" fill="#155DFC"/>
<path d="M18.3246 19.2905C18.0906 19.3767 17.853 19.4508 17.6128 19.5127L8.58026 10.6739C8.6415 10.4369 8.71504 10.2022 8.80088 9.97101L18.3246 19.2905Z" fill="#155DFC"/>
<path d="M19.5847 18.686C19.3872 18.8049 19.1854 18.9139 18.9798 19.013L9.07819 9.32358C9.17729 9.1204 9.28652 8.92078 9.40591 8.72549L19.5847 18.686Z" fill="#155DFC"/>
<path d="M20.6578 17.8986C20.4911 18.0457 20.3193 18.184 20.143 18.3136L9.77997 8.17277C9.91027 7.99813 10.0495 7.8279 10.1976 7.6627L20.6578 17.8986Z" fill="#155DFC"/>
<path d="M21.5619 16.9456C21.4269 17.116 21.2832 17.2819 21.1306 17.4425L10.6573 7.19365C10.8193 7.04227 10.9865 6.8995 11.1585 6.76534L21.5619 16.9456Z" fill="#155DFC"/>
<path d="M22.2931 15.8235C22.1887 16.022 22.0744 16.2166 21.9501 16.4068L11.7027 6.37906C11.8949 6.25538 12.0916 6.14141 12.2923 6.03719L22.2931 15.8235Z" fill="#155DFC"/>
<path d="M22.8267 14.5081C22.7587 14.7393 22.6789 14.9676 22.5871 15.1925L12.9308 5.74324C13.1583 5.65132 13.3896 5.57107 13.6237 5.50247L22.8267 14.5081Z" fill="#155DFC"/>
<path d="M23.1042 12.942C23.0865 13.2167 23.0528 13.4907 23.0036 13.7624L14.3793 5.32303C14.6546 5.27258 14.9324 5.23764 15.2111 5.2182L23.1042 12.942Z" fill="#155DFC"/>
<path d="M22.9588 10.9622C23.0341 11.3128 23.0829 11.6679 23.1052 12.0243L16.1425 5.211C16.5045 5.23057 16.8652 5.27624 17.2215 5.34804L22.9588 10.9622Z" fill="#155DFC"/>
<path d="M18.5816 5.7601C19.4375 6.11195 20.2401 6.62961 20.9386 7.31326C21.6373 7.99692 22.1682 8.78406 22.5312 9.625L18.5816 5.7601Z" fill="#155DFC"/>
<path d="M9.20996 15.884L12.3207 18.9281C11.6777 18.5976 11.0738 18.1673 10.5322 17.6374C9.9906 17.1074 9.54983 16.5152 9.20996 15.884Z" fill="#155DFC"/>
<path d="M41.9326 61.561C41.5318 61.3162 41.1404 61.0545 40.7595 60.7764L33.8482 47.976C33.8269 47.5094 33.8254 47.0434 33.8433 46.579L41.9326 61.561Z" fill="#155DFC"/>
<path d="M44.0178 62.6468C43.6767 62.4978 43.3403 62.3376 43.0091 62.1667L33.9351 45.3611C33.9762 44.9948 34.0294 44.6304 34.0945 44.2683L44.0178 62.6468Z" fill="#155DFC"/>
<path d="M45.8913 63.3406C45.5831 63.2462 45.2776 63.1433 44.9752 63.032L34.3055 43.2709C34.3808 42.9616 34.4648 42.6545 34.5576 42.3499L45.8913 63.3406Z" fill="#155DFC"/>
<path d="M47.6253 63.7762C47.3395 63.7197 47.0554 63.6562 46.773 63.5857L34.844 41.4925C34.9425 41.2223 35.0478 40.9546 35.16 40.6896L47.6253 63.7762Z" fill="#155DFC"/>
<path d="M49.2551 64.0186C48.9863 63.9915 48.7185 63.9582 48.4517 63.9187L35.5019 39.9347C35.6178 39.6946 35.7394 39.4572 35.8668 39.2225L49.2551 64.0186Z" fill="#155DFC"/>
<path d="M50.8007 64.1051C50.5458 64.1021 50.2914 64.0937 50.0376 64.0796L36.2527 38.5491C36.3826 38.3337 36.5177 38.1211 36.6577 37.9113L50.8007 64.1051Z" fill="#155DFC"/>
<path d="M52.2748 64.0593C52.0319 64.0771 51.7889 64.0899 51.5461 64.0976L37.0805 37.3063C37.2227 37.1123 37.3691 36.9209 37.5201 36.7324L52.2748 64.0593Z" fill="#155DFC"/>
<path d="M53.6858 63.8966C53.4535 63.9331 53.2207 63.9647 52.9878 63.9917L37.9753 36.1875C38.1282 36.0123 38.2849 35.8399 38.4455 35.6704L53.6858 63.8966Z" fill="#155DFC"/>
<path d="M55.0397 63.6278C54.8167 63.6814 54.5934 63.7304 54.3696 63.7749L38.9301 35.1797C39.0925 35.0216 39.2585 34.8665 39.4283 34.7143L55.0397 63.6278Z" fill="#155DFC"/>
<path d="M56.3402 63.2605C56.1263 63.33 55.9116 63.3952 55.6964 63.4561L39.9397 34.2738C40.1112 34.1318 40.286 33.9928 40.4641 33.8569L56.3402 63.2605Z" fill="#155DFC"/>
<path d="M57.5904 62.8C57.385 62.8848 57.1786 62.9653 56.9715 63.0416L41.0011 33.4634C41.1811 33.3368 41.3642 33.2132 41.5504 33.0926L57.5904 62.8Z" fill="#155DFC"/>
<path d="M58.7924 62.2499C58.5951 62.3494 58.3967 62.4447 58.1974 62.536L42.1118 32.7444C42.3 32.6325 42.491 32.5236 42.685 32.418L58.7924 62.2499Z" fill="#155DFC"/>
<path d="M59.9469 61.6123C59.7593 61.7253 59.5689 61.8352 59.3756 61.942L43.2701 32.1136C43.468 32.0153 43.667 31.9212 43.867 31.8311L59.9469 61.6123Z" fill="#155DFC"/>
<path d="M61.0537 60.8859C60.8743 61.0138 60.6919 61.1386 60.5063 61.2604L44.4758 31.5706C44.6818 31.487 44.8889 31.4077 45.0967 31.3326L61.0537 60.8859Z" fill="#155DFC"/>
<path d="M62.111 60.0681C61.9402 60.2113 61.766 60.3516 61.5886 60.4887L45.73 31.1173C45.9446 31.049 46.1599 30.9851 46.3759 30.9256L62.111 60.0681Z" fill="#155DFC"/>
<path d="M63.1165 59.1542C62.9547 59.3136 62.7893 59.47 62.6204 59.6236L47.0346 30.7577C47.2583 30.7054 47.4824 30.6578 47.7069 30.6147L63.1165 59.1542Z" fill="#155DFC"/>
<path d="M64.0666 58.138C63.9147 58.3146 63.7586 58.4886 63.5988 58.6595L48.3929 30.4973C48.6261 30.4621 48.8597 30.4318 49.0933 30.4064L64.0666 58.138Z" fill="#155DFC"/>
<path d="M64.9564 57.0098C64.8152 57.2055 64.6695 57.3984 64.5194 57.5885L49.8088 30.3434C50.0527 30.3271 50.2964 30.3159 50.54 30.3099L64.9564 57.0098Z" fill="#155DFC"/>
<path d="M65.7785 55.7564C65.6495 55.9735 65.5154 56.1881 65.3763 56.3998L51.2882 30.3074C51.5441 30.3121 51.7995 30.3225 52.0544 30.3384L65.7785 55.7564Z" fill="#155DFC"/>
<path d="M66.5224 54.3583C66.4078 54.6005 66.2874 54.8401 66.1611 55.077L52.84 30.4055C53.1099 30.4347 53.379 30.4702 53.6469 30.5119L66.5224 54.3583Z" fill="#155DFC"/>
<path d="M34.0129 49.6691L39.4266 59.6956C38.8193 59.1501 38.2478 58.5574 37.718 57.9192L34.5532 52.058C34.3121 51.2684 34.1327 50.4701 34.0129 49.6691Z" fill="#155DFC"/>
<path d="M24.8461 6.62563C12.9531 6.62563 3.31281 10.336 3.31281 14.9077V44.7229C3.31281 49.2946 12.9531 53.005 24.8461 53.005C36.7391 53.005 46.3793 49.2946 46.3793 44.7229V14.9077C46.3793 10.336 36.7391 6.62563 24.8461 6.62563ZM43.0665 44.7229C42.8512 46.164 36.1925 49.6922 24.8461 49.6922C13.4997 49.6922 6.84095 46.164 6.62562 44.7229V39.1906C6.94033 39.3893 7.27161 39.5715 7.63602 39.7537C8.91146 40.4163 10.4685 40.996 12.2077 41.493C15.7524 42.4868 20.1253 43.0665 24.8461 43.0665C29.5668 43.0665 33.9232 42.4868 37.4679 41.493C39.2237 41.0126 40.7641 40.4179 42.0561 39.7537C42.4222 39.5715 42.7518 39.3893 43.0665 39.1906V44.7229ZM43.0665 34.7845C42.9506 35.5465 40.996 36.9213 37.4844 38.0145C34.4035 38.9918 30.13 39.7537 24.8461 39.7537C19.5787 39.7537 15.3052 38.9752 12.2243 38.0145C8.69612 36.9047 6.74156 35.5465 6.62562 34.7845V29.2521C6.94033 29.4492 7.27161 29.6331 7.63602 29.8153C8.91146 30.4779 10.4685 31.0576 12.2077 31.5545C15.7524 32.5484 20.1253 33.1281 24.8461 33.1281C29.5668 33.1281 33.9232 32.5484 37.4679 31.5545C39.2237 31.0742 40.7641 30.4795 42.0561 29.8153C42.4222 29.6348 42.7518 29.4492 43.0665 29.2521V34.7845ZM43.0665 24.8461C42.9506 25.608 40.996 26.9828 37.4844 28.0761C34.4035 29.0534 30.13 29.8153 24.8461 29.8153C19.5787 29.8153 15.3052 29.0351 12.2243 28.0761C8.69612 26.9663 6.74156 25.608 6.62562 24.8461V19.3137C6.94033 19.5125 7.27161 19.6947 7.63602 19.8769C8.91146 20.5394 10.4685 21.1192 12.2077 21.6161C15.7524 22.6099 20.1253 23.1897 24.8461 23.1897C29.5668 23.1897 33.9232 22.6099 37.4679 21.6161C39.2237 21.1357 40.7641 20.5394 42.0561 19.8769C42.4222 19.6947 42.7518 19.5125 43.0665 19.3137V24.8461ZM37.4844 18.1376C34.4035 19.1149 30.13 19.8769 24.8461 19.8769C19.5787 19.8769 15.3052 19.0984 12.2243 18.1376C8.69612 17.0279 6.74156 15.6696 6.62562 14.9077C6.84095 13.4666 13.4997 9.93844 24.8461 9.93844C36.1925 9.93844 42.8512 13.4831 43.0665 14.9077C42.9506 15.6696 40.996 17.0444 37.4844 18.1376Z" fill="black"/>
</g>
<defs>
<clipPath id="clip0_2015_236">
<rect width="53.005" height="53.005" fill="white"/>
</clipPath>
</defs>
</svg>
