<svg width="26" height="26" viewBox="0 0 26 26" fill="none" xmlns="http://www.w3.org/2000/svg">
<path d="M19.2928 8.50215C19.5281 8.83902 19.7341 9.19542 19.9085 9.56746L22.4398 10.9748C22.7559 12.3905 22.7592 13.8581 22.4496 15.2751L19.9085 16.6825C19.7341 17.0546 19.5281 17.411 19.2928 17.7478L19.3416 20.6505C18.2689 21.6281 16.9992 22.3646 15.618 22.8105L13.1257 21.3151C12.7158 21.3445 12.3042 21.3445 11.8943 21.3151L9.41182 22.8007C8.02625 22.3629 6.75237 21.6293 5.67837 20.6505L5.72724 17.7576C5.49392 17.4161 5.28803 17.0566 5.11151 16.6825L2.58019 15.2751C2.26412 13.8595 2.26078 12.3919 2.57042 10.9748L5.11151 9.56746C5.28595 9.19542 5.49195 8.83902 5.72724 8.50215L5.67837 5.59944C6.75115 4.62187 8.02085 3.88538 9.40205 3.43951L11.8943 4.93485C12.3042 4.90553 12.7158 4.90553 13.1257 4.93485L15.6082 3.44929C16.9938 3.88704 18.2676 4.62069 19.3416 5.59944L19.2928 8.50215Z" stroke="#155DFC" stroke-width="1.5" stroke-linecap="round" stroke-linejoin="round"/>
<path d="M12.51 17.8162C15.1009 17.8162 17.2013 15.7159 17.2013 13.125C17.2013 10.5341 15.1009 8.43372 12.51 8.43372C9.9191 8.43372 7.81876 10.5341 7.81876 13.125C7.81876 15.7159 9.9191 17.8162 12.51 17.8162Z" stroke="#155DFC" stroke-width="1.5" stroke-linecap="round" stroke-linejoin="round"/>
</svg>
