<svg width="26" height="26" viewBox="0 0 26 26" fill="none" xmlns="http://www.w3.org/2000/svg">
<path d="M20.3287 14.8887H4.69124C4.25942 14.8887 3.90936 15.2387 3.90936 15.6706V20.3618C3.90936 20.7936 4.25942 21.1437 4.69124 21.1437H20.3287C20.7606 21.1437 21.1106 20.7936 21.1106 20.3618V15.6706C21.1106 15.2387 20.7606 14.8887 20.3287 14.8887Z" stroke="#155DFC" stroke-width="1.5" stroke-linecap="round" stroke-linejoin="round"/>
<path d="M20.3287 5.5062H4.69124C4.25942 5.5062 3.90936 5.85625 3.90936 6.28807V10.9793C3.90936 11.4111 4.25942 11.7612 4.69124 11.7612H20.3287C20.7606 11.7612 21.1106 11.4111 21.1106 10.9793V6.28807C21.1106 5.85625 20.7606 5.5062 20.3287 5.5062Z" stroke="#155DFC" stroke-width="1.5" stroke-linecap="round" stroke-linejoin="round"/>
<path d="M17.5922 9.8065C18.2399 9.8065 18.765 9.28142 18.765 8.63369C18.765 7.98596 18.2399 7.46088 17.5922 7.46088C16.9445 7.46088 16.4194 7.98596 16.4194 8.63369C16.4194 9.28142 16.9445 9.8065 17.5922 9.8065Z" fill="#155DFC"/>
<path d="M17.5922 19.189C18.2399 19.189 18.765 18.6639 18.765 18.0162C18.765 17.3685 18.2399 16.8434 17.5922 16.8434C16.9445 16.8434 16.4194 17.3685 16.4194 18.0162C16.4194 18.6639 16.9445 19.189 17.5922 19.189Z" fill="#155DFC"/>
</svg>
