<svg width="26" height="26" viewBox="0 0 26 26" fill="none" xmlns="http://www.w3.org/2000/svg">
<path d="M22.2932 12.7004L8.22922 4.09973C8.11083 4.0267 7.9751 3.98657 7.83603 3.9835C7.69696 3.98042 7.55958 4.0145 7.43808 4.08223C7.31657 4.14995 7.21533 4.24887 7.14481 4.36877C7.07428 4.48867 7.03702 4.62522 7.03687 4.76432V21.9656C7.03702 22.1047 7.07428 22.2412 7.14481 22.3611C7.21533 22.481 7.31657 22.5799 7.43808 22.6477C7.55958 22.7154 7.69696 22.7495 7.83603 22.7464C7.9751 22.7433 8.11083 22.7032 8.22922 22.6302L22.2932 14.0295C22.4087 13.9612 22.5044 13.864 22.5709 13.7475C22.6373 13.631 22.6723 13.4991 22.6723 13.3649C22.6723 13.2308 22.6373 13.0989 22.5709 12.9824C22.5044 12.8658 22.4087 12.7686 22.2932 12.7004V12.7004Z" stroke="#155DFC" stroke-width="1.5" stroke-linecap="round" stroke-linejoin="round"/>
</svg>
