<svg width="26" height="26" viewBox="0 0 26 26" fill="none" xmlns="http://www.w3.org/2000/svg">
<path d="M10.7062 2.06339C15.864 2.06342 20.0458 6.24452 20.0461 11.4023C20.0461 13.621 19.2701 15.6573 17.9777 17.2597L23.923 23.205C24.3132 23.5955 24.3134 24.2287 23.923 24.619C23.5326 25.0094 22.8995 25.0092 22.509 24.619L16.5637 18.6737C14.9613 19.9661 12.9249 20.7421 10.7062 20.7421C5.5485 20.7418 1.3674 16.56 1.36737 11.4023C1.36762 6.24465 5.54864 2.06364 10.7062 2.06339ZM10.7062 4.06339C6.65321 4.06364 3.36762 7.34922 3.36737 11.4023C3.3674 15.4555 6.65307 18.7418 10.7062 18.7421C14.7596 18.7421 18.046 15.4556 18.0461 11.4023C18.0458 7.34909 14.7595 4.06342 10.7062 4.06339Z" fill="#155DFC"/>
</svg>
